<svg xmlns="http://www.w3.org/2000/svg" viewBox="0 0 1440 320">
    <linearGradient id="grad1" x1="0%" y1="0%" x2="100%" y2="0%">
        <stop offset="0%" stop-color="#D44D5C" />
        <stop offset="50%" stop-color="#FF8484" />
        <stop offset="100%" stop-color="#FF6900" />
    </linearGradient>
  <path fill="url(#grad1)" fill-opacity="1" d="M0,128L34.3,112C68.6,96,137,64,206,85.3C274.3,107,343,181,411,218.7C480,256,549,256,617,250.7C685.7,245,754,235,823,218.7C891.4,203,960,181,1029,149.3C1097.1,117,1166,75,1234,48C1302.9,21,1371,11,1406,5.3L1440,0L1440,320L1405.7,320C1371.4,320,1303,320,1234,320C1165.7,320,1097,320,1029,320C960,320,891,320,823,320C754.3,320,686,320,617,320C548.6,320,480,320,411,320C342.9,320,274,320,206,320C137.1,320,69,320,34,320L0,320Z">
        <animate 
          repeatCount="indefinite" 
          fill="#454599" 
          attributeName="d" 
          dur="17s" 
          values="
            M0 160 
            C 500,171
              69,103
              2120,116 

            V 4000 
            H 0 
            V 23 
            Z; 

            M0 180 
            c 473,40
              1322,283
              1920,136 

            V 359 
            H 0 
            V 67 
            Z; 

            M0 77 
            c 973,260
              1722,-53
              1920,120 

            V 359 
            H 0 
            V 67 
            Z; 

            M0 77 
            c 473,283
              822,0
              1920,126 

            V 359 
            H 0 
            V 67 
            Z
            ">
        </animate>
    </path>
</svg>